# xmcd
#
# Track frame offsets: 
#        150
#        17680
#        34844
#        48031
#        62736
#        78840
#        90302
#        101108
#
# Disc length: 1572 seconds
#
# Revision: 12
# Processed by: cddbd v1.5.2PL0 Copyright (c) Steve Scherf et al.
# Submitted via: ExactAudioCopy v1.3
#
DISCID=53062208
DTITLE=Amy Winehouse - Back To Black [Deluxe Edition]
DYEAR=2008
DGENRE=Jazz
TTITLE0=Valerie
TTITLE1=Cupid
TTITLE2=Monkey Man
TTITLE3=Some Unholy War
TTITLE4=Amy Winehouse feat. Zalon and Ade - Hey Little Rich Girl
TTITLE5=You're Wondering Now
TTITLE6=To Know Him Is To Love Him
TTITLE7=Love Is A Losing Game (original demo)
EXTD=
EXTT0=
EXTT1=
EXTT2=
EXTT3=
EXTT4=
EXTT5=
EXTT6=
EXTT7=
PLAYORDER=
